<svg width="800" height="600" xmlns="http://www.w3.org/2000/svg">
  <defs>
    <linearGradient id="lavaFlow" x1="0%" y1="0%" x2="100%" y2="100%">
      <stop offset="0%" style="stop-color:#ff6347;stop-opacity:1" />
      <stop offset="50%" style="stop-color:#ff4500;stop-opacity:0.9" />
      <stop offset="100%" style="stop-color:#8b0000;stop-opacity:0.8" />
    </linearGradient>
    <radialGradient id="volcanoGlow" cx="30%" cy="20%" r="70%">
      <stop offset="0%" style="stop-color:#ffa500;stop-opacity:0.8" />
      <stop offset="60%" style="stop-color:#ff4500;stop-opacity:0.6" />
      <stop offset="100%" style="stop-color:#2f4f2f;stop-opacity:1" />
    </radialGradient>
    <linearGradient id="nightSky" x1="0%" y1="0%" x2="0%" y2="100%">
      <stop offset="0%" style="stop-color:#191970;stop-opacity:1" />
      <stop offset="30%" style="stop-color:#ff4500;stop-opacity:0.2" />
      <stop offset="100%" style="stop-color:#000000;stop-opacity:1" />
    </linearGradient>
  </defs>
  
  <!-- Night sky with volcanic glow -->
  <rect width="800" height="400" fill="url(#nightSky)"/>
  
  <!-- Distant mountains -->
  <polygon points="0,300 150,180 300,200 450,160 600,190 800,280 800,600 0,600" fill="#1a1a1a" opacity="0.8"/>
  
  <!-- Main volcano -->
  <polygon points="200,400 300,120 400,400" fill="url(#volcanoGlow)"/>
  
  <!-- Crater opening -->
  <ellipse cx="300" cy="120" rx="25" ry="8" fill="#ff4500"/>
  
  <!-- Multiple lava flows -->
  <path d="M 300 120 Q 280 200 260 280 Q 240 360 220 440 Q 200 500 180 560 L 200 570 Q 220 510 240 450 Q 260 370 280 290 Q 300 210 300 120" fill="url(#lavaFlow)"/>
  
  <path d="M 300 120 Q 320 180 340 240 Q 360 300 380 360 Q 400 420 420 480 Q 440 540 460 580 L 480 570 Q 460 530 440 490 Q 420 430 400 370 Q 380 310 360 250 Q 340 190 300 120" fill="url(#lavaFlow)" opacity="0.8"/>
  
  <!-- Lava pool at base -->
  <ellipse cx="300" cy="550" rx="80" ry="20" fill="#ff4500" opacity="0.9"/>
  
  <!-- Steam/smoke -->
  <ellipse cx="290" cy="100" rx="15" ry="30" fill="#ffffff" opacity="0.3"/>
  <ellipse cx="310" cy="90" rx="12" ry="25" fill="#ffffff" opacity="0.2"/>
  
  <!-- Tropical vegetation -->
  <ellipse cx="80" cy="380" rx="30" ry="80" fill="#228b22" opacity="0.7"/>
  <ellipse cx="120" cy="390" rx="25" ry="70" fill="#32cd32" opacity="0.6"/>
  <ellipse cx="600" cy="370" rx="35" ry="90" fill="#228b22" opacity="0.7"/>
  <ellipse cx="650" cy="385" rx="28" ry="75" fill="#32cd32" opacity="0.6"/>
  <ellipse cx="680" cy="395" rx="20" ry="60" fill="#228b22" opacity="0.5"/>
  
  <!-- Glowing embers -->
  <circle cx="250" cy="200" r="2" fill="#ffa500" opacity="0.9"/>
  <circle cx="350" cy="180" r="1.5" fill="#ff6347" opacity="0.8"/>
  <circle cx="280" cy="160" r="1" fill="#ff4500" opacity="0.7"/>
  <circle cx="320" cy="170" r="2" fill="#ffa500" opacity="0.9"/>
  
  <!-- Ground -->
  <rect x="0" y="400" width="800" height="200" fill="#2f4f2f" opacity="0.9"/>
</svg>