<svg width="800" height="600" xmlns="http://www.w3.org/2000/svg">
  <defs>
    <radialGradient id="lavaGlow" cx="50%" cy="30%" r="60%">
      <stop offset="0%" style="stop-color:#ff4500;stop-opacity:1" />
      <stop offset="40%" style="stop-color:#ff6347;stop-opacity:0.8" />
      <stop offset="100%" style="stop-color:#8b0000;stop-opacity:0.6" />
    </radialGradient>
    <linearGradient id="mountainGrad" x1="0%" y1="0%" x2="0%" y2="100%">
      <stop offset="0%" style="stop-color:#2f4f2f;stop-opacity:1" />
      <stop offset="70%" style="stop-color:#1a1a1a;stop-opacity:1" />
      <stop offset="100%" style="stop-color:#000000;stop-opacity:1" />
    </linearGradient>
    <radialGradient id="skyGrad" cx="50%" cy="0%" r="100%">
      <stop offset="0%" style="stop-color:#ff4500;stop-opacity:0.3" />
      <stop offset="50%" style="stop-color:#ff8c00;stop-opacity:0.2" />
      <stop offset="100%" style="stop-color:#000080;stop-opacity:1" />
    </radialGradient>
  </defs>
  
  <!-- Sky with volcanic glow -->
  <rect width="800" height="300" fill="url(#skyGrad)"/>
  
  <!-- Mountain silhouette -->
  <polygon points="0,400 200,200 400,150 600,200 800,400 800,600 0,600" fill="url(#mountainGrad)"/>
  
  <!-- Volcano crater -->
  <ellipse cx="400" cy="150" rx="60" ry="20" fill="#ff4500"/>
  
  <!-- Lava fountain -->
  <polygon points="370,150 380,50 390,40 400,30 410,40 420,50 430,150" fill="url(#lavaGlow)"/>
  
  <!-- Lava sparks -->
  <circle cx="350" cy="80" r="3" fill="#ff6347" opacity="0.8"/>
  <circle cx="450" cy="70" r="2" fill="#ff4500" opacity="0.9"/>
  <circle cx="380" cy="60" r="2" fill="#ffa500" opacity="0.7"/>
  <circle cx="420" cy="65" r="3" fill="#ff6347" opacity="0.8"/>
  
  <!-- Lava flow -->
  <path d="M 400 150 Q 350 250 300 350 Q 280 400 250 450 Q 230 500 200 550 L 220 560 Q 250 510 270 460 Q 300 410 320 360 Q 370 260 400 150" fill="#ff4500" opacity="0.7"/>
  
  <!-- Vegetation silhouettes -->
  <ellipse cx="100" cy="380" rx="40" ry="60" fill="#228b22" opacity="0.6"/>
  <ellipse cx="150" cy="390" rx="30" ry="50" fill="#32cd32" opacity="0.5"/>
  <ellipse cx="650" cy="370" rx="35" ry="55" fill="#228b22" opacity="0.6"/>
  <ellipse cx="700" cy="385" rx="25" ry="45" fill="#32cd32" opacity="0.5"/>
  
  <!-- Ground -->
  <rect x="0" y="400" width="800" height="200" fill="#2f4f2f" opacity="0.8"/>
</svg>